HIERARCHY
ROOT Hips
{
	OFFSET 0.000000 0.000000 0.000000
	CHANNELS 6 Xposition Yposition Zposition Xrotation Yrotation Zrotation
	JOINT LeftUpLeg_virtual
	{
		OFFSET 0.000000 0.000000 0.000000
		CHANNELS 3 Xrotation Yrotation Zrotation
		JOINT LeftUpLeg
		{
			OFFSET 11.394100 -6.187798 -0.413800
			CHANNELS 3 Xrotation Yrotation Zrotation
			JOINT LeftLeg
			{
				OFFSET 0.430247 -32.302673 3.732800
				CHANNELS 3 Xrotation Yrotation Zrotation
				JOINT LeftFoot
				{
					OFFSET -0.430247 -48.264931 -6.423300
					CHANNELS 3 Xrotation Yrotation Zrotation
					JOINT LeftToeBase
					{
						OFFSET 4.230900 -16.068199 23.438400
						CHANNELS 3 Xrotation Yrotation Zrotation
						JOINT LeftToe_End
						{
							OFFSET 4.510700 0.695400 19.974600
							CHANNELS 3 Xrotation Yrotation Zrotation
							End Site
							{
								OFFSET 0 0 0
							}
						}
					}
				}
			}
		}
	}
	JOINT RightUpLeg_virtual
	{
		OFFSET 0.000000 0.000000 0.000000
		CHANNELS 3 Xrotation Yrotation Zrotation
		JOINT RightUpLeg
		{
			OFFSET -11.333700 -6.187798 -0.413800
			CHANNELS 3 Xrotation Yrotation Zrotation
			JOINT RightLeg
			{
				OFFSET -0.430392 -32.302628 3.733000
				CHANNELS 3 Xrotation Yrotation Zrotation
				JOINT RightFoot
				{
					OFFSET 0.430392 -48.264973 -6.423500
					CHANNELS 3 Xrotation Yrotation Zrotation
					JOINT RightToeBase
					{
						OFFSET -4.230900 -16.068199 23.438400
						CHANNELS 3 Xrotation Yrotation Zrotation
						JOINT RightToe_End
						{
							OFFSET -4.510700 0.695400 19.974600
							CHANNELS 3 Xrotation Yrotation Zrotation
							End Site
							{
								OFFSET 0 0 0
							}
						}
					}
				}
			}
		}
	}
	JOINT Spine_virtual
	{
		OFFSET 0.000000 0.000000 0.000000
		CHANNELS 3 Xrotation Yrotation Zrotation
		JOINT Spine
		{
			OFFSET -0.002400 12.777504 0.315300
			CHANNELS 3 Xrotation Yrotation Zrotation
			JOINT Spine1
			{
				OFFSET -0.002067 5.816869 0.032633
				CHANNELS 3 Xrotation Yrotation Zrotation
				JOINT Spine1_split
				{
					OFFSET -0.002067 5.816869 0.032633
					CHANNELS 3 Xrotation Yrotation Zrotation
					JOINT Spine2
					{
						OFFSET -0.002067 5.816869 0.032633
						CHANNELS 3 Xrotation Yrotation Zrotation
						JOINT Neck_virtual
						{
							OFFSET 0.000000 0.000000 0.000000
							CHANNELS 3 Xrotation Yrotation Zrotation
							JOINT Neck
							{
								OFFSET -0.003700 21.199493 -0.826900
								CHANNELS 3 Xrotation Yrotation Zrotation
								JOINT Head
								{
									OFFSET 0.000000 20.442200 4.834800
									CHANNELS 3 Xrotation Yrotation Zrotation
									JOINT HeadTop_End
									{
										OFFSET 0.000000 34.668396 4.968400
										CHANNELS 3 Xrotation Yrotation Zrotation
										End Site
										{
											OFFSET 0 0 0
										}
									}
								}
							}
						}
						JOINT LeftShoulder_virtual
						{
							OFFSET 0.000000 0.000000 0.000000
							CHANNELS 3 Xrotation Yrotation Zrotation
							JOINT LeftShoulder
							{
								OFFSET 3.288150 8.794197 -1.372250
								CHANNELS 3 Xrotation Yrotation Zrotation
								JOINT LeftShoulder_split
								{
									OFFSET 3.288150 8.794197 -1.372250
									CHANNELS 3 Xrotation Yrotation Zrotation
									JOINT LeftArm
									{
										OFFSET 11.953299 -2.279007 -0.146200
										CHANNELS 3 Xrotation Yrotation Zrotation
										JOINT LeftForeArm
										{
											OFFSET 18.448900 0.000000 0.000000
											CHANNELS 3 Xrotation Yrotation Zrotation
											JOINT LeftHand
											{
												OFFSET 29.527798 0.000000 0.000000
												CHANNELS 3 Xrotation Yrotation Zrotation
												End Site
												{
													OFFSET 0 0 0
												}
											}
										}
									}
								}
							}
						}
						JOINT RightShoulder_virtual
						{
							OFFSET 0.000000 0.000000 0.000000
							CHANNELS 3 Xrotation Yrotation Zrotation
							JOINT RightShoulder
							{
								OFFSET -3.249400 8.794197 -1.372250
								CHANNELS 3 Xrotation Yrotation Zrotation
								JOINT RightShoulder_split
								{
									OFFSET -3.249400 8.794197 -1.372250
									CHANNELS 3 Xrotation Yrotation Zrotation
									JOINT RightArm
									{
										OFFSET -11.953299 -2.279007 -0.146200
										CHANNELS 3 Xrotation Yrotation Zrotation
										JOINT RightForeArm
										{
											OFFSET -18.448900 0.000000 0.000000
											CHANNELS 3 Xrotation Yrotation Zrotation
											JOINT RightHand
											{
												OFFSET -29.527802 0.000000 0.000000
												CHANNELS 3 Xrotation Yrotation Zrotation
												End Site
												{
													OFFSET 0 0 0
												}
											}
										}
									}
								}
							}
						}
					}
				}
			}
		}
	}
}
MOTION
Frames: 6
Frame Time: 0.03333333
-0.016507 80.141731 1.256636 0.000000 0.000000 0.000000 7.480784 2.239130 -1.884762 21.799992 17.789815 4.721743 23.075079 -5.292962 7.701481 -46.233837 -1.515451 -1.535086 -14.032940 -0.000002 0.000005 0.000000 0.000000 0.000000 7.480784 2.239130 -1.884762 -71.830231 -1.513408 -1.772085 74.747166 -1.869563 -0.065597 -10.390733 2.678239 -3.519401 1.392934 -0.020129 1.750630 0.000000 0.000000 0.000000 7.480784 2.239130 -1.884762 1.502547 -1.963398 0.337265 4.463941 -2.897045 3.069452 0.000000 0.000000 0.000000 0.000000 0.000000 0.000000 4.470553 -2.960906 2.997962 -6.646404 2.329848 -0.789045 -22.799696 6.183981 9.466395 0.000000 0.000000 0.000000 4.470553 -2.960906 2.997962 -0.863853 7.389831 -0.025978 0.000000 0.000000 0.000000 -11.563463 10.383922 -66.345534 -179.999964 -64.819916 -179.999964 0.000000 0.000000 0.000000 4.470553 -2.960906 2.997962 0.518560 -7.917611 14.973083 0.000000 0.000000 0.000000 -19.108971 0.823922 54.260017 179.999978 65.206108 -179.999964 0.000000 0.000000 0.000000 
0.222589 84.980225 2.016870 0.000000 0.000000 0.000000 7.048117 5.890765 -0.369748 14.775733 13.835126 3.411167 30.258411 -0.461918 11.132095 -34.525018 -0.118088 -3.670753 -32.297314 0.000004 -0.000003 0.000000 0.000000 0.000000 7.048117 5.890765 -0.369748 -63.468208 -1.039355 -4.301838 66.470786 -3.409858 -0.451785 -10.030575 2.630799 -3.943703 1.368241 -0.019604 1.727022 0.000000 0.000000 0.000000 7.048117 5.890765 -0.369748 2.267682 -2.204573 0.704649 3.099217 -3.162404 2.168580 0.000000 0.000000 0.000000 0.000000 0.000000 0.000000 3.091625 -3.180354 2.120445 -5.647360 2.000596 -1.393999 -18.366983 3.484119 8.410585 0.000000 0.000000 0.000000 3.091625 -3.180354 2.120445 -0.472600 4.837149 -0.286772 0.000000 0.000000 0.000000 -18.246984 6.118551 -64.201114 179.999991 -68.040726 179.999978 0.000000 0.000000 0.000000 3.091625 -3.180354 2.120445 0.323429 -7.582999 12.788914 0.000000 0.000000 0.000000 -22.735695 4.589342 55.000515 -179.999964 65.453177 179.999964 0.000000 0.000000 0.000000 
0.648352 90.326431 1.830643 0.000000 0.000000 0.000000 5.837804 9.289208 0.438851 -1.507299 9.030175 3.987423 46.158371 10.772462 13.931794 -9.604919 1.209674 -12.048834 -46.572888 0.000003 -0.000001 0.000000 0.000000 0.000000 5.837804 9.289208 0.438851 -53.657570 -1.570763 -5.394431 55.413274 -5.844017 -1.279319 -7.603053 2.822326 -5.252509 -0.143018 0.000000 -0.000002 0.000000 0.000000 0.000000 5.837804 9.289208 0.438851 4.111890 -1.971485 1.942790 2.040744 -3.016032 1.391134 0.000000 0.000000 0.000000 0.000000 0.000000 0.000000 2.006031 -2.989534 1.398627 -4.440901 1.612600 -2.281643 -14.196188 -0.020068 7.284554 0.000000 0.000000 0.000000 2.006031 -2.989534 1.398627 0.068468 1.355723 -0.866199 0.000000 0.000000 0.000000 -25.917125 -0.435044 -62.080675 -179.999950 -72.913991 -179.999950 0.000000 0.000000 0.000000 2.006031 -2.989534 1.398627 0.210354 -5.995286 10.576174 0.000000 0.000000 0.000000 -27.995668 7.628511 54.628748 -179.999950 66.269132 179.999923 0.000000 0.000000 0.000000 
1.023628 94.733345 0.920544 0.000000 0.000000 0.000000 4.284328 12.416817 0.253629 -12.520421 5.798067 5.501652 53.921202 15.573040 9.730153 15.010915 -1.097388 -3.263157 -40.122444 6.116602 -24.026324 0.000000 0.000000 0.000000 4.284328 12.416817 0.253629 -46.344138 -1.914263 -5.409295 45.890695 -10.029469 -2.436259 -0.515394 2.458858 -3.504659 -5.836456 0.000001 0.000004 0.000000 0.000000 0.000000 4.284328 12.416817 0.253629 5.831894 -1.489267 3.618005 1.949363 -2.659792 0.899521 0.000000 0.000000 0.000000 0.000000 0.000000 0.000000 1.896968 -2.616143 0.938717 -3.296967 1.144833 -3.044797 -10.632060 -3.935966 6.843427 0.000000 0.000000 0.000000 1.896968 -2.616143 0.938717 0.568131 -2.178354 -0.868056 0.000000 0.000000 0.000000 -35.106691 -7.404374 -61.207053 179.999882 -78.716762 179.999882 0.000000 0.000000 0.000000 1.896968 -2.616143 0.938717 0.207308 -3.936309 8.797185 0.000000 0.000000 0.000000 -35.419141 9.963632 52.813441 179.999991 68.060827 -179.999978 0.000000 0.000000 0.000000 
1.120006 97.614723 0.111738 0.000000 0.000000 0.000000 2.993295 14.369842 -0.437985 -17.369151 5.338446 5.929998 51.850698 5.742779 3.768661 43.844924 -0.300958 3.201061 73.765831 29.126006 21.684054 0.000000 0.000000 0.000000 2.993295 14.369842 -0.437985 -42.651338 -2.123541 -4.967974 40.178724 -11.021814 -3.265960 9.591656 -2.158554 1.780986 -14.594390 0.000002 0.000004 0.000000 0.000000 0.000000 2.993295 14.369842 -0.437985 6.459233 -0.739265 5.136534 2.978382 -2.041431 0.410065 0.000000 0.000000 0.000000 0.000000 0.000000 0.000000 2.915021 -2.015024 0.447751 -2.420705 0.649270 -3.417442 -7.903156 -7.562121 7.271150 0.000000 0.000000 0.000000 2.915021 -2.015024 0.447751 1.014106 -5.352208 0.544285 0.000000 0.000000 0.000000 -45.652243 -13.589400 -61.251559 -179.998175 -84.906648 -179.998079 0.000000 0.000000 0.000000 2.915021 -2.015024 0.447751 0.089342 -4.052603 7.037430 0.000000 0.000000 0.000000 -44.633603 13.795999 52.404749 -179.999937 72.352549 179.999937 0.000000 0.000000 0.000000 
0.892546 99.504868 -0.201937 0.000000 0.000000 0.000000 2.400671 14.368495 -1.123992 -30.303633 5.344987 7.443824 64.961437 4.801549 0.724813 49.541531 -0.440149 2.196785 61.398039 12.628510 13.204890 0.000000 0.000000 0.000000 2.400671 14.368495 -1.123992 -40.111444 -2.988177 -4.446369 35.870852 -10.491208 -2.356183 16.875150 -0.627628 4.484980 -15.968479 0.000001 -0.000002 0.000000 0.000000 0.000000 2.400671 14.368495 -1.123992 6.243913 0.170234 5.306472 4.448039 -1.372283 0.550578 0.000000 0.000000 0.000000 0.000000 0.000000 0.000000 4.392855 -1.358247 0.586388 -1.596926 0.485279 -3.771821 -5.934756 -9.578222 8.117677 0.000000 0.000000 0.000000 4.392855 -1.358247 0.586388 1.219309 -6.840146 2.759383 0.000000 0.000000 0.000000 -56.339604 -18.196322 -62.362694 0.004415 -88.669837 0.004313 0.000000 0.000000 0.000000 4.392855 -1.358247 0.586388 -0.418000 -6.889076 3.645292 0.000000 0.000000 0.000000 -55.571389 19.095892 56.081297 -179.999978 80.569267 179.999950 0.000000 0.000000 0.000000 
